<svg xmlns="http://www.w3.org/2000/svg" width="119" height="60" viewBox="0 0 119 60">
  <g id="Group_452" data-name="Group 452" transform="translate(-12805 -6559)">
    <text id="Dashboard" transform="translate(12805 6612)" fill="rgba(240,240,240,0.65)" font-size="21" font-family="Poppins-Medium, Poppins" font-weight="500"><tspan x="0" y="0">Dashboard</tspan></text>
    <g id="dashboard-reference" transform="translate(12852.75 6556.75)">
      <path id="Path_324" data-name="Path 324" d="M3.545,22.5v1.295H6.514L2.25,28.059l.916.916L7.43,24.711V27.68H8.725V22.5Z" transform="translate(0 -8.596)" fill="#fff"/>
      <path id="Path_325" data-name="Path 325" d="M27,23.625h1.295v3.237H27Z" transform="translate(-10.506 -9.073)" fill="#fff"/>
      <path id="Path_326" data-name="Path 326" d="M22.5,18h1.295v6.475H22.5Z" transform="translate(-8.596 -6.686)" fill="#fff"/>
      <path id="Path_327" data-name="Path 327" d="M18,20.25h1.295v5.18H18Z" transform="translate(-6.686 -7.641)" fill="#fff"/>
      <path id="Path_328" data-name="Path 328" d="M19.084,2.25H3.545A1.3,1.3,0,0,0,2.25,3.545v7.77H3.545V9.372h15.54v9.712H11.314v1.295h7.77a1.3,1.3,0,0,0,1.295-1.295V3.545A1.3,1.3,0,0,0,19.084,2.25ZM8.725,8.077H3.545V3.545h5.18Zm1.295,0V3.545h9.064V8.077Z" fill="#fff"/>
    </g>
  </g>
</svg>
